<svg width="12" height="13" viewBox="0 0 12 13" fill="none" xmlns="http://www.w3.org/2000/svg">
<path d="M7.4375 12.7166L4.4375 10.4766V7.91655L0.4375 3.39655V2.19655C0.4375 1.79655 0.5775 1.44989 0.8575 1.15655C1.1375 0.863219 1.49083 0.716553 1.9175 0.716553H9.9175C10.3442 0.716553 10.7042 0.863219 10.9975 1.15655C11.2908 1.44989 11.4375 1.80989 11.4375 2.23655V3.39655L7.4375 7.91655V12.7166ZM5.4375 9.95655L6.4375 10.7166V7.51655L10.4375 3.03655V2.19655C10.4375 2.06322 10.3842 1.94989 10.2775 1.85655C10.1708 1.76322 10.0508 1.71655 9.9175 1.71655H1.9175C1.78417 1.71655 1.67083 1.76322 1.5775 1.85655C1.48417 1.94989 1.4375 2.06322 1.4375 2.19655V3.03655L5.4375 7.51655V9.95655Z" fill="white"/>
</svg>
