<svg width="37" height="39" viewBox="0 0 37 39" fill="none" xmlns="http://www.w3.org/2000/svg">
<g clip-path="url(#clip0_6511_2185)">
<g clip-path="url(#clip1_6511_2185)">
<g clip-path="url(#clip2_6511_2185)">
<path d="M32.3604 20.386V18.25C32.3604 14.6696 30.9381 11.2358 28.4064 8.70406C25.8746 6.17232 22.4409 4.75 18.8604 4.75C15.28 4.75 11.8462 6.17232 9.31446 8.70406C6.78271 11.2358 5.3604 14.6696 5.3604 18.25V20.386C3.78714 21.0787 2.4996 22.2909 1.71333 23.8196C0.927064 25.3483 0.689791 27.1006 1.04124 28.7834C1.39268 30.4661 2.31151 31.977 3.6439 33.0632C4.9763 34.1494 6.64138 34.7449 8.3604 34.75H11.3604V19.75H8.3604V18.25C8.3604 15.4652 9.46664 12.7945 11.4358 10.8254C13.405 8.85625 16.0757 7.75 18.8604 7.75C21.6452 7.75 24.3159 8.85625 26.2851 10.8254C28.2542 12.7945 29.3604 15.4652 29.3604 18.25V19.75H26.3604V31.75H20.3604V34.75H29.3604C31.0795 34.7449 32.7445 34.1494 34.0769 33.0632C35.4093 31.977 36.3282 30.4661 36.6796 28.7834C37.0311 27.1006 36.7938 25.3483 36.0075 23.8196C35.2211 22.2909 33.9337 21.0787 32.3604 20.386ZM8.3604 31.75C7.16692 31.75 6.02233 31.2759 5.17842 30.432C4.3345 29.5881 3.8604 28.4435 3.8604 27.25C3.8604 26.0565 4.3345 24.9119 5.17842 24.068C6.02233 23.2241 7.16692 22.75 8.3604 22.75V31.75ZM29.3604 31.75V22.75C30.5539 22.75 31.6985 23.2241 32.5424 24.068C33.3862 24.9119 33.8604 26.0565 33.8604 27.25C33.8604 28.4435 33.3862 29.5881 32.5424 30.432C31.6985 31.2759 30.5539 31.75 29.3604 31.75Z" fill="#253D4E"/>
</g>
</g>
</g>
<defs>
<clipPath id="clip0_6511_2185">
<rect width="36" height="38" fill="white" transform="translate(0.859375 0.75)"/>
</clipPath>
<clipPath id="clip1_6511_2185">
<rect width="36" height="38" fill="white" transform="translate(0.859375 0.75)"/>
</clipPath>
<clipPath id="clip2_6511_2185">
<rect width="36" height="36" fill="white" transform="translate(0.859375 1.75)"/>
</clipPath>
</defs>
</svg>
