<svg width="15" height="14" viewBox="0 0 15 14" fill="none" xmlns="http://www.w3.org/2000/svg">
<g clip-path="url(#clip0_6511_7892)">
<path d="M7.04938 6.39333H0.609375V1.72667C0.609375 1.26 0.780486 0.855556 1.12271 0.513333C1.46493 0.171111 1.88493 0 2.38271 0H7.04938V6.39333ZM1.77604 5.22667H5.88271V1.16667H2.38271C2.19604 1.16667 2.04826 1.22111 1.93938 1.33C1.83049 1.43889 1.77604 1.57111 1.77604 1.72667V5.22667ZM14.6094 6.39333H8.21604V0H12.8827C13.3494 0 13.7538 0.171111 14.096 0.513333C14.4383 0.855556 14.6094 1.27556 14.6094 1.77333V6.39333ZM9.38271 5.22667H13.4427V1.72667C13.4427 1.57111 13.3883 1.43889 13.2794 1.33C13.1705 1.22111 13.0383 1.16667 12.8827 1.16667H9.38271V5.22667ZM7.04938 14H2.38271C1.88493 14 1.46493 13.8289 1.12271 13.4867C0.780486 13.1444 0.609375 12.74 0.609375 12.2733V7.56H7.04938V14ZM1.77604 8.72667V12.2267C1.77604 12.4133 1.83049 12.5611 1.93938 12.67C2.04826 12.7789 2.19604 12.8333 2.38271 12.8333H5.88271V8.72667H1.77604ZM12.8827 14H8.21604V7.56H14.6094V12.2267C14.6094 12.7244 14.4383 13.1444 14.096 13.4867C13.7538 13.8289 13.3338 14 12.836 14H12.8827ZM9.38271 12.8333H12.8827C13.0383 12.8333 13.1705 12.7789 13.2794 12.67C13.3883 12.5611 13.4427 12.4133 13.4427 12.2267V8.72667H9.38271V12.8333Z" fill="#ABABAB"/>
</g>
<defs>
<clipPath id="clip0_6511_7892">
<rect width="14" height="14" fill="white" transform="matrix(1 0 0 -1 0.609375 14)"/>
</clipPath>
</defs>
</svg>
